<svg xmlns="http://www.w3.org/2000/svg" width="54.2mm" height="14.94mm" viewBox="0 0 153.64 42.35"><polygon points="31.76 10.59 21.18 10.59 31.76 21.18 21.18 31.76 31.76 31.76 42.35 21.18 31.76 10.59" fill="#fff"/><polygon points="21.17 10.59 21.17 10.59 10.59 0 0 0 10.59 10.59 10.59 10.59 0 21.18 0 21.18 0 21.18 0 21.18 0 21.18 10.59 31.76 10.59 31.76 0 42.35 10.59 42.35 21.17 31.76 10.59 21.18 21.17 10.59" fill="#fff"/><path d="M65,27.91a.54.54,0,0,1-.44.15h-2.1a.49.49,0,0,1-.56-.55l0-8.13a4.38,4.38,0,0,0-.42-2.06,1.71,1.71,0,0,0-1.66-.78,4,4,0,0,0-1,.15,9.85,9.85,0,0,0-1.13.36c-.38.14-.73.29-1.05.43l-.79.37v9.66a.48.48,0,0,1-.54.55H53.26a.49.49,0,0,1-.55-.55v-13c0-.38.18-.58.55-.58h2.06c.36,0,.54.2.54.58v.87h0l0,0a7,7,0,0,1,1-.59,9.52,9.52,0,0,1,1.2-.57,9.37,9.37,0,0,1,1.33-.42,6,6,0,0,1,1.37-.16,5,5,0,0,1,2.32.45,3.14,3.14,0,0,1,1.27,1.2A4.51,4.51,0,0,1,65,17a20,20,0,0,1,.11,2.1v8.39a.66.66,0,0,1-.11.4" fill="#fff"/><path d="M72.85,16.22h0a3.2,3.2,0,0,0-1.33.24,2.1,2.1,0,0,0-.86.67,2.78,2.78,0,0,0-.47,1.09A9.51,9.51,0,0,0,70,19.67h5.73a7.62,7.62,0,0,0-.11-1.28,3.23,3.23,0,0,0-.42-1.1,2.13,2.13,0,0,0-.87-.78,3.24,3.24,0,0,0-1.46-.29M70,21.84a6.92,6.92,0,0,0,.24,1.82,2.58,2.58,0,0,0,.65,1.14,2.51,2.51,0,0,0,1.07.6,6.18,6.18,0,0,0,1.54.17c.52,0,1.13,0,1.85-.11l1.91-.21a1.21,1.21,0,0,1,.56,0c.11.06.18.21.22.48l.17,1a1.11,1.11,0,0,1,0,.52c0,.14-.21.26-.48.38a8.24,8.24,0,0,1-1,.3c-.39.09-.8.16-1.22.22l-1.27.14c-.43,0-.81.06-1.16.06a7.62,7.62,0,0,1-3.33-.61,4.6,4.6,0,0,1-1.9-1.62,5.9,5.9,0,0,1-.89-2.33,17.11,17.11,0,0,1,0-5.08,7,7,0,0,1,.8-2.43,5.14,5.14,0,0,1,1.85-1.89,6.25,6.25,0,0,1,3.34-.77,7.36,7.36,0,0,1,3.14.58,4.93,4.93,0,0,1,1.86,1.49,5.21,5.21,0,0,1,.91,2.08A12.45,12.45,0,0,1,79,20.07a2.36,2.36,0,0,1-.26,1.28,1.26,1.26,0,0,1-1.16.49Z" fill="#fff"/><path d="M89.37,27a.62.62,0,0,1-.37.72,4.43,4.43,0,0,1-.89.29c-.33.08-.68.14-1,.19s-.69.08-1,.1l-.83,0a4.49,4.49,0,0,1-2-.36,2.37,2.37,0,0,1-1-1,3.73,3.73,0,0,1-.44-1.47,16.71,16.71,0,0,1-.08-1.77V16.43H80.23a.58.58,0,0,1-.43-.13.62.62,0,0,1-.12-.42V14.46A.65.65,0,0,1,79.8,14a.51.51,0,0,1,.43-.15H81.7v-3a.58.58,0,0,1,.16-.45,1,1,0,0,1,.39-.18l1.94-.52c.39-.1.58,0,.58.34v3.79h3.1c.23,0,.38,0,.44.15a.66.66,0,0,1,.11.4v1.45a.68.68,0,0,1-.11.42.56.56,0,0,1-.44.13h-3.1v7.2a3.46,3.46,0,0,0,.09.9.85.85,0,0,0,.3.48,1.12,1.12,0,0,0,.6.18c.25,0,.56,0,.95,0l.91,0a9.21,9.21,0,0,0,1-.08.53.53,0,0,1,.35.05.67.67,0,0,1,.17.35Z" fill="#fff"/><path d="M95.62,24.5a3.79,3.79,0,0,1,.18-.62c.11-.36.23-.75.37-1.17s.34-1.06.55-1.65L99,14.35a.74.74,0,0,1,.21-.35.67.67,0,0,1,.45-.12h2.2c.38,0,.5.18.35.55l-4.92,13a1.1,1.1,0,0,1-.29.46.79.79,0,0,1-.52.15H94.58a.83.83,0,0,1-.55-.13,1.16,1.16,0,0,1-.26-.45l-4.92-13a.63.63,0,0,1,0-.4c0-.12.16-.18.35-.18h2.28a.78.78,0,0,1,.45.1,1,1,0,0,1,.25.42l2.31,6.77c.18.56.34,1.08.5,1.57s.25.78.36,1.14a2.91,2.91,0,0,0,.22.62Z" fill="#fff"/><path d="M106.73,27.51a.71.71,0,0,1-.1.39c-.06.11-.2.16-.42.16h-2c-.39,0-.58-.19-.58-.55V14.43c0-.37.19-.55.58-.55h2c.22,0,.36,0,.42.16a.71.71,0,0,1,.1.39Z" fill="#fff"/><path d="M119.78,23.81a4.18,4.18,0,0,1-.49,2.12A4,4,0,0,1,118,27.31a6.21,6.21,0,0,1-1.87.75,10.24,10.24,0,0,1-2.17.23,18.49,18.49,0,0,1-2.37-.16,9.06,9.06,0,0,1-2.11-.48,1,1,0,0,1-.55-.39.84.84,0,0,1-.06-.56l.2-1c0-.23.12-.37.23-.42a1.09,1.09,0,0,1,.52,0c.31.06.65.11,1,.15l1.13.1,1.07.07.88,0a3.75,3.75,0,0,0,2-.4,1.37,1.37,0,0,0,.6-1.25,2.63,2.63,0,0,0-.1-.81,1,1,0,0,0-.36-.52,1.88,1.88,0,0,0-.71-.33,6.41,6.41,0,0,0-1.14-.22,19.1,19.1,0,0,1-2-.38,5.87,5.87,0,0,1-1.7-.68,3.39,3.39,0,0,1-1.17-1.18,3.8,3.8,0,0,1-.43-1.93,3.79,3.79,0,0,1,1.5-3.25,6.43,6.43,0,0,1,3.94-1.12l1,0c.38,0,.78.06,1.17.12s.79.12,1.17.2a6.19,6.19,0,0,1,1,.29c.49.19.69.48.61.87l-.23,1c0,.21-.11.34-.22.39a1.09,1.09,0,0,1-.56,0l-2-.21c-.73-.07-1.37-.11-1.91-.11a3,3,0,0,0-1.83.39,1.58,1.58,0,0,0-.45,1.24,1.1,1.1,0,0,0,.56,1.1,8.27,8.27,0,0,0,1.9.46,19.33,19.33,0,0,1,2,.37,5.65,5.65,0,0,1,1.66.7,3.37,3.37,0,0,1,1.16,1.24,4.31,4.31,0,0,1,.43,2.09" fill="#fff"/><path d="M124.91,27.51a.71.71,0,0,1-.11.39c-.06.11-.2.16-.41.16h-2.06a.51.51,0,0,1-.58-.55V14.43c0-.37.2-.55.58-.55h2.06c.21,0,.35,0,.41.16a.71.71,0,0,1,.11.39Z" fill="#fff"/><path d="M136.42,20.94h0a14.81,14.81,0,0,0-.11-2,3.55,3.55,0,0,0-.47-1.42,2.13,2.13,0,0,0-1-.85,3.76,3.76,0,0,0-1.59-.29,3.36,3.36,0,0,0-1.5.29,2.14,2.14,0,0,0-.92.87,4.15,4.15,0,0,0-.46,1.43,14.28,14.28,0,0,0-.13,2,14.52,14.52,0,0,0,.13,2,4.32,4.32,0,0,0,.45,1.42,2.06,2.06,0,0,0,.9.85,3.26,3.26,0,0,0,1.5.29,4.09,4.09,0,0,0,1.61-.27,2.07,2.07,0,0,0,1-.84,3.55,3.55,0,0,0,.47-1.43,15.23,15.23,0,0,0,.11-2m3.21-.2a22.81,22.81,0,0,1-.15,2.57,6.38,6.38,0,0,1-.8,2.45,4.77,4.77,0,0,1-1.9,1.82,7.31,7.31,0,0,1-3.52.71,6.92,6.92,0,0,1-3.41-.71A4.72,4.72,0,0,1,128,25.76a6.33,6.33,0,0,1-.76-2.45,22.81,22.81,0,0,1-.15-2.57,14.64,14.64,0,0,1,.19-2.26,6.49,6.49,0,0,1,.82-2.33A5.16,5.16,0,0,1,130,14.33a6.42,6.42,0,0,1,3.31-.74,7.56,7.56,0,0,1,3.36.64,4.76,4.76,0,0,1,1.92,1.66,6.05,6.05,0,0,1,.88,2.3,15.67,15.67,0,0,1,.21,2.55" fill="#fff"/><path d="M153.52,27.91a.52.52,0,0,1-.43.15H151a.49.49,0,0,1-.55-.55l0-8.13a4.38,4.38,0,0,0-.42-2.06,1.72,1.72,0,0,0-1.66-.78,3.91,3.91,0,0,0-1,.15,9.85,9.85,0,0,0-1.13.36c-.38.14-.73.29-1.06.43l-.78.37v9.66a.49.49,0,0,1-.55.55h-2.05a.49.49,0,0,1-.55-.55v-13c0-.38.18-.58.55-.58h2.05c.37,0,.55.2.55.58v.87h.05s0,0,0,0a7.5,7.5,0,0,1,1-.59,11,11,0,0,1,1.2-.57,9.94,9.94,0,0,1,1.34-.42,5.89,5.89,0,0,1,1.37-.16,5,5,0,0,1,2.32.45,3.14,3.14,0,0,1,1.27,1.2,4.51,4.51,0,0,1,.56,1.75,20,20,0,0,1,.11,2.1v8.39a.6.6,0,0,1-.12.4" fill="#fff"/></svg>