<svg width="101" height="17" viewBox="0 0 101 17" fill="none" xmlns="http://www.w3.org/2000/svg">
<path d="M8.5 0L10.7483 5.40551L16.584 5.87336L12.1378 9.68199L13.4962 15.3766L8.5 12.325L3.50383 15.3766L4.86221 9.68199L0.416019 5.87336L6.25172 5.40551L8.5 0Z" fill="#FFD66D"/>
<path d="M29.5 0L31.7483 5.40551L37.584 5.87336L33.1378 9.68199L34.4962 15.3766L29.5 12.325L24.5038 15.3766L25.8622 9.68199L21.416 5.87336L27.2517 5.40551L29.5 0Z" fill="#FFD66D"/>
<path d="M50.5 0L52.7483 5.40551L58.584 5.87336L54.1378 9.68199L55.4962 15.3766L50.5 12.325L45.5038 15.3766L46.8622 9.68199L42.416 5.87336L48.2517 5.40551L50.5 0Z" fill="#FFD66D"/>
<path d="M71.5 0L73.7483 5.40551L79.584 5.87336L75.1378 9.68199L76.4962 15.3766L71.5 12.325L66.5038 15.3766L67.8622 9.68199L63.416 5.87336L69.2517 5.40551L71.5 0Z" fill="#FFD66D"/>
<path d="M87.5038 15.3766L92.5 12.325V0L90.2517 5.40551L84.416 5.87336L88.8622 9.68199L87.5038 15.3766Z" fill="#FFD66D"/>
</svg>
