<svg width="29" height="29" viewBox="0 0 29 29" fill="none" xmlns="http://www.w3.org/2000/svg">
<path d="M20.3 0H26.3636C27.8197 0 29 1.29837 29 2.9V8.7H26.1V2.9H20.3V0Z" fill="#9909E3"/>
<path d="M2.63636 29H8.7V26.1H2.9V20.3H0V26.1C0 27.7016 1.18034 29 2.63636 29Z" fill="#9909E3"/>
<path d="M20.3 26.1V29H26.3636C27.8197 29 29 27.7016 29 26.1V20.3H26.1V26.1H20.3Z" fill="#9909E3"/>
<path d="M8.7 2.9V0H2.63636C1.18034 0 0 1.29837 0 2.9V8.7H2.9V2.9H8.7Z" fill="#9909E3"/>
<path fill-rule="evenodd" clip-rule="evenodd" d="M8.7 17.4C8.7 18.85 10.15 21.75 14.5 21.75C18.85 21.75 20.3 18.85 20.3 17.4" fill="#9909E3"/>
<path fill-rule="evenodd" clip-rule="evenodd" d="M14.4957 7.25C14.4957 7.25 14.4957 13.05 14.5 14.5C14.5 15.225 13.775 15.95 13.05 15.95C12.325 15.95 12.0247 15.95 12.0247 15.95" fill="#9909E3"/>
<path d="M18.85 7.25H21.75V11.6H18.85V7.25Z" fill="#9909E3"/>
<path d="M7.25 7.25H10.15V11.6H7.25V7.25Z" fill="#9909E3"/>
</svg>
