<svg width="36" height="36" viewBox="0 0 36 36" fill="none" xmlns="http://www.w3.org/2000/svg">
<path d="M23.4098 35.9049C18.686 35.9049 11.2574 34.343 9.42885 33.0477C9.0098 32.743 8.78125 32.2858 8.78125 31.7906V16.8953C8.78125 16.4382 9.00982 15.981 9.35268 15.7144C9.46696 15.6382 12.1336 13.5429 14.9146 11.981C18.3812 10.0763 20.7812 7.40964 21.3527 5.73345C22.0384 3.67631 23.0289 0.857239 26.1527 0.857239C27.6384 0.857239 28.8574 1.69533 29.505 3.14295C30.8003 6.11438 29.4289 10.2287 27.1431 13.4668C28.6669 13.8096 30.5717 14.3048 31.7146 14.6477C33.8098 15.2953 35.1812 16.8192 35.486 18.6858C35.7527 20.5906 34.8003 22.5335 32.7812 24.0192C31.2955 28.0192 28.7432 34.3429 26.8765 35.3715C26.1527 35.7525 24.8955 35.9049 23.4098 35.9049ZM11.8289 30.8763C14.7241 32.0954 23.6384 33.3525 25.3146 32.7049C26.1908 31.9049 28.4384 26.8001 30.0003 22.4954C30.1146 22.1906 30.305 21.9239 30.5717 21.7334C31.8289 20.8954 32.4765 19.9049 32.3622 19.0668C32.2479 18.3811 31.6384 17.8096 30.7241 17.5048C28.8193 16.8953 24.0955 15.8668 24.0193 15.8668C23.486 15.7525 23.067 15.3715 22.8765 14.8382C22.686 14.3048 22.8384 13.7334 23.2193 13.3525C26.6479 9.65726 27.2574 5.88579 26.6098 4.36198C26.4193 3.90484 26.1908 3.90486 26.0765 3.90486C25.3146 3.90486 24.9717 4.4382 24.1717 6.72392C23.2574 9.39058 20.0955 12.5906 16.3241 14.6477C14.4955 15.6382 12.667 16.9715 11.7527 17.6572V30.8763H11.8289ZM5.8098 31.9429V16.7429C5.8098 15.3715 4.70504 14.2667 3.33361 14.2667C1.96218 14.2667 0.857422 15.3715 0.857422 16.7429V31.9429C0.857422 33.3144 1.96218 34.4191 3.33361 34.4191C4.66695 34.4191 5.8098 33.2763 5.8098 31.9429Z" fill="#9909E3"/>
</svg>
