<svg width="31" height="28" viewBox="0 0 31 28" fill="none" xmlns="http://www.w3.org/2000/svg">
<path d="M16.4893 11.5002L16.6705 11.5678L16.7814 11.4094L20.2608 6.43869L22.1056 7.73002L18.4882 12.8978L18.3959 13.0296L18.4776 13.1681C18.8176 13.7446 19.0127 14.4166 19.0127 15.135C19.0127 17.2766 17.2766 19.0127 15.135 19.0127C12.9934 19.0127 11.2573 17.2766 11.2573 15.135C11.2573 12.9934 12.9934 11.2573 15.135 11.2573C15.6118 11.2573 16.068 11.3432 16.4893 11.5002ZM22.9192 25.0164H23.0076L23.0764 24.9607C26.0176 22.5818 27.7682 19.0049 27.7682 15.135C27.7682 8.15789 22.1121 2.50182 15.135 2.50182C8.15789 2.50182 2.50182 8.15789 2.50182 15.135C2.50182 19.0049 4.25243 22.5818 7.19362 24.9607L7.26239 25.0164H7.35084H22.9192ZM15.135 16.7609C16.033 16.7609 16.7609 16.033 16.7609 15.135C16.7609 14.237 16.033 13.5091 15.135 13.5091C14.237 13.5091 13.5091 14.237 13.5091 15.135C13.5091 16.033 14.237 16.7609 15.135 16.7609ZM6.2019 27.0424C2.48312 24.2484 0.25 19.8762 0.25 15.135C0.25 6.91424 6.91424 0.25 15.135 0.25C23.3558 0.25 30.02 6.91424 30.02 15.135C30.02 19.8762 27.7869 24.2484 24.0681 27.0424L23.7676 27.2682H6.50237L6.2019 27.0424Z" fill="#A7D365" stroke="white" stroke-width="0.5"/>
</svg>
