<svg width="31" height="20" viewBox="0 0 31 20" fill="none" xmlns="http://www.w3.org/2000/svg">
<path d="M0.114524 5.6413C0.0761734 5.67581 0.0379987 5.71042 0 5.74513L2.16204 7.69081C2.19998 7.65607 2.23813 7.62143 2.27649 7.58692C9.40226 1.17423 20.9317 1.1399 28.1046 7.48392L30.2667 5.53824C21.8997 -1.88028 8.43432 -1.84592 0.114524 5.6413Z" fill="#291536"/>
<path d="M4.20855 9.53253C10.1787 4.15986 19.8581 4.15986 25.8282 9.53253L23.6662 11.4781C18.8902 7.18001 11.1466 7.18001 6.37052 11.4781L4.20855 9.53253Z" fill="#291536"/>
<path d="M21.5043 13.4238C17.9222 10.2002 12.1145 10.2002 8.53248 13.4238L10.6945 15.3694C13.0825 13.2203 16.9543 13.2203 19.3423 15.3694L21.5043 13.4238Z" fill="#291536"/>
<path d="M17.1803 17.315C15.9863 16.2405 14.0504 16.2405 12.8564 17.315L15.0184 19.2606L17.1803 17.315Z" fill="#291536"/>
</svg>
