<svg width="30" height="30" viewBox="0 0 30 30" fill="none" xmlns="http://www.w3.org/2000/svg">
<path fill-rule="evenodd" clip-rule="evenodd" d="M15 2.72727C8.22196 2.72727 2.72727 8.22196 2.72727 15C2.72727 21.778 8.22196 27.2727 15 27.2727C21.778 27.2727 27.2727 21.778 27.2727 15C27.2727 8.22196 21.778 2.72727 15 2.72727ZM0 15C0 6.71573 6.71573 0 15 0C23.2843 0 30 6.71573 30 15C30 23.2843 23.2843 30 15 30C6.71573 30 0 23.2843 0 15Z" fill="white"/>
<path d="M15.9642 8.58122C15.4317 8.04869 14.5683 8.04869 14.0358 8.58122L8.58122 14.0358C8.04869 14.5683 8.04869 15.4317 8.58122 15.9642C9.11375 16.4968 9.97716 16.4968 10.5097 15.9642L13.6364 12.8376V20.4545C13.6364 21.2077 14.2469 21.8182 15 21.8182C15.7531 21.8182 16.3636 21.2077 16.3636 20.4545V12.8376L19.4903 15.9642C20.0228 16.4968 20.8862 16.4968 21.4188 15.9642C21.9513 15.4317 21.9513 14.5683 21.4188 14.0358L15.9642 8.58122Z" fill="white"/>
</svg>
