<svg width="31" height="28" viewBox="0 0 31 28" fill="none" xmlns="http://www.w3.org/2000/svg">
<path fill-rule="evenodd" clip-rule="evenodd" d="M28.925 24.94C29.865 23.3289 30.2667 20.7311 30.2667 16.5053C30.2667 12.2962 29.8688 9.71354 28.9187 8.05925C27.9666 6.34139 26.8373 5.79613 24.5962 5.66525C23.0662 5.56155 19.2637 5.50305 15.137 5.50305C11.0014 5.50305 7.1972 5.56153 5.65575 5.66607C3.42717 5.79644 2.29767 6.3429 1.33714 8.06554C0.400873 9.71411 0 12.3094 0 16.5207C0 20.708 0.402815 23.3164 1.34537 24.9595C2.29341 26.66 3.40491 27.1999 5.65244 27.3577C7.26779 27.4522 11.2873 27.5152 15.137 27.5152C18.9781 27.5152 22.9956 27.4522 24.5962 27.3587C26.8644 27.1999 27.9757 26.6591 28.925 24.94ZM24.423 8.41128C25.8249 8.49321 26.0848 8.61921 26.5292 9.42346C27.1761 10.5438 27.5152 12.7364 27.5152 16.5207C27.5152 20.2763 27.1743 22.4809 26.5322 23.5819C26.0863 24.3886 25.8281 24.5142 24.4198 24.6129C22.9049 24.7013 18.9263 24.7637 15.137 24.7637C11.3392 24.7637 7.35857 24.7013 5.82913 24.6119C4.43821 24.5141 4.17632 24.3869 3.74032 23.605C3.09389 22.4779 2.75152 20.2609 2.75152 16.5053C2.75152 12.7519 3.09207 10.5471 3.73504 9.41491C4.17783 8.62089 4.44155 8.4933 5.82922 8.41208C7.2985 8.3125 11.0669 8.25457 15.137 8.25457C19.1983 8.25457 22.965 8.31252 24.423 8.41128ZM12.3818 12.3818L19.2606 16.5091L12.3818 20.6364V12.3818Z" fill="#291536"/>
<path fill-rule="evenodd" clip-rule="evenodd" d="M18.4546 6.87878H11.8118L7.28161 2.34857C6.74435 1.8113 6.74435 0.940217 7.28161 0.40295C7.81888 -0.134317 8.68996 -0.134317 9.22723 0.40295L15.1332 6.30893L21.0392 0.40295C21.5765 -0.134317 22.4475 -0.134317 22.9848 0.40295C23.5221 0.940217 23.5221 1.8113 22.9848 2.34857L18.4546 6.87878Z" fill="#291536"/>
</svg>
