<svg width="23" height="35" viewBox="0 0 23 35" fill="none" xmlns="http://www.w3.org/2000/svg">
<path fill-rule="evenodd" clip-rule="evenodd" d="M11.5 2.91667C6.73654 2.91667 2.875 6.83418 2.875 11.6667C2.875 16.4992 6.73654 20.4167 11.5 20.4167C16.2635 20.4167 20.125 16.4992 20.125 11.6667C20.125 6.83418 16.2635 2.91667 11.5 2.91667ZM0 11.6667C0 5.22335 5.14873 0 11.5 0C17.8513 0 23 5.22335 23 11.6667C23 18.11 17.8513 23.3333 11.5 23.3333C5.14873 23.3333 0 18.11 0 11.6667Z" fill="#9909E3"/>
<path fill-rule="evenodd" clip-rule="evenodd" d="M16.7591 18.796C17.5461 18.6901 18.2687 19.2514 18.3731 20.0499L20.1125 33.3499C20.1851 33.905 19.938 34.4532 19.4767 34.7606C19.0153 35.068 18.4212 35.0803 17.9479 34.7922L11.5 30.8674L5.05209 34.7922C4.57876 35.0803 3.98461 35.068 3.52326 34.7605C3.0619 34.4531 2.81484 33.9048 2.88751 33.3497L4.62689 20.0642C4.73142 19.2658 5.45414 18.7046 6.24114 18.8106C7.02814 18.9167 7.58139 19.6499 7.47686 20.4483L6.13014 30.7346L10.7604 27.9162C11.2156 27.6391 11.7844 27.6391 12.2396 27.9162L16.8703 30.7349L15.5231 20.4335C15.4187 19.6351 15.972 18.9019 16.7591 18.796Z" fill="#9909E3"/>
</svg>
