<svg width="30" height="27" viewBox="0 0 30 27" fill="none" xmlns="http://www.w3.org/2000/svg">
<path fill-rule="evenodd" clip-rule="evenodd" d="M3.97773 2.65182C3.62607 2.65182 3.28882 2.79151 3.04017 3.04017C2.79151 3.28882 2.65182 3.62607 2.65182 3.97773V22.5405C2.65182 22.8921 2.79151 23.2294 3.04017 23.478C3.28882 23.7267 3.62608 23.8664 3.97773 23.8664H25.1923C25.5439 23.8664 25.8812 23.7267 26.1298 23.478C26.3785 23.2294 26.5182 22.8921 26.5182 22.5405V7.95545C26.5182 7.6038 26.3785 7.26655 26.1298 7.0179C25.8812 6.76924 25.5439 6.62955 25.1923 6.62955H13.2591C12.8158 6.62955 12.4018 6.40798 12.1559 6.03912L9.89767 2.65182H3.97773ZM1.16505 1.16505C1.91102 0.419081 2.92277 0 3.97773 0H10.6073C11.0506 0 11.4646 0.221561 11.7105 0.590427L13.9687 3.97773H25.1923C26.2472 3.97773 27.259 4.39681 28.005 5.14278C28.7509 5.88874 29.17 6.9005 29.17 7.95545V22.5405C29.17 23.5954 28.7509 24.6072 28.005 25.3531C27.259 26.0991 26.2472 26.5182 25.1923 26.5182H3.97773C2.92277 26.5182 1.91102 26.0991 1.16505 25.3531C0.419081 24.6072 0 23.5954 0 22.5405V3.97773C0 2.92277 0.419081 1.91102 1.16505 1.16505Z" fill="#9909E3"/>
</svg>
