<svg width="28" height="31" viewBox="0 0 28 31" fill="none" xmlns="http://www.w3.org/2000/svg">
<path fill-rule="evenodd" clip-rule="evenodd" d="M13.6178 0C6.10366 0 0 6.10366 0 13.6178C0 17.9229 1.99285 21.7584 5.10728 24.253V29.7076C5.10728 30.1067 5.55188 30.3449 5.88419 30.1239L10.6975 26.9223C11.6381 27.1275 12.6152 27.2355 13.6178 27.2355C21.1319 27.2355 27.2355 21.1319 27.2355 13.6178C27.2355 6.09117 21.1444 0 13.6178 0ZM4.25702 13.6176C4.25702 16.4379 6.35283 18.7242 8.93813 18.7242C11.5234 18.7242 13.6192 16.4379 13.6192 13.6176C13.6192 10.7972 11.5234 8.51092 8.93813 8.51092C6.35283 8.51092 4.25702 10.7972 4.25702 13.6176ZM8.93733 16.1714C10.0605 16.1714 11.0651 15.0755 11.0651 13.6181C11.0651 12.1607 10.0605 11.0648 8.93733 11.0648C7.81418 11.0648 6.80955 12.1607 6.80955 13.6181C6.80955 15.0755 7.81418 16.1714 8.93733 16.1714ZM14.8953 9.78759C14.8953 8.08537 17.4487 8.08537 17.4487 9.78759V12.2368L20.8006 8.88485C21.2992 8.38628 22.1076 8.38628 22.6061 8.88485C23.1047 9.38342 23.1047 10.1918 22.6061 10.6903L19.6788 13.6176L22.6061 16.545C23.1047 17.0435 23.1047 17.8519 22.6061 18.3504C22.1076 18.849 21.2992 18.849 20.8006 18.3504L17.4487 14.9985V17.4476C17.4487 19.1498 14.8953 19.1498 14.8953 17.4476V9.78759Z" fill="url(#paint0_linear)"/>
<defs>
<linearGradient id="paint0_linear" x1="13.6178" y1="0" x2="13.6178" y2="30.2084" gradientUnits="userSpaceOnUse">
<stop stop-color="#D98F81"/>
<stop offset="1" stop-color="#D45378"/>
</linearGradient>
</defs>
</svg>
