<svg width="55" height="56" viewBox="0 0 55 56" fill="none" xmlns="http://www.w3.org/2000/svg">
<path fill-rule="evenodd" clip-rule="evenodd" d="M0 3.72949C0 2.07264 1.34315 0.729492 3 0.729492H52C53.6569 0.729492 55 2.07264 55 3.72949V52.793C55 54.4499 53.6569 55.793 52 55.793H3C1.34315 55.793 0 54.4499 0 52.793V3.72949Z" fill="#8101C2"/>
<path d="M26.8124 38.3269C29.2585 38.3269 31.5273 37.5105 33.3353 36.0909L37.5894 40.3499C37.873 40.6338 38.2275 40.7758 38.582 40.7758C38.9365 40.7758 39.291 40.6338 39.5746 40.3499C40.1418 39.782 40.1418 38.8947 39.5746 38.3269L35.3205 34.0679C36.7031 32.2578 37.5539 29.9864 37.5539 27.5374C37.5539 21.6104 32.7326 16.748 26.777 16.748C20.8567 16.748 16 21.5749 16 27.5374C16 33.5 20.8567 38.3269 26.8124 38.3269ZM26.8124 19.6229C31.1728 19.6229 34.7533 23.172 34.7533 27.5729C34.7533 31.9739 31.2083 35.523 26.8124 35.523C22.452 35.523 18.8715 31.9739 18.8715 27.5729C18.8715 23.172 22.4165 19.6229 26.8124 19.6229Z" fill="#FFD66D"/>
</svg>
