<svg width="33" height="33" viewBox="0 0 33 33" fill="none" xmlns="http://www.w3.org/2000/svg">
<path fill-rule="evenodd" clip-rule="evenodd" d="M16.0417 2.91667C8.79293 2.91667 2.91667 8.79293 2.91667 16.0417C2.91667 23.2904 8.79293 29.1667 16.0417 29.1667C23.2904 29.1667 29.1667 23.2904 29.1667 16.0417C29.1667 8.79293 23.2904 2.91667 16.0417 2.91667ZM0 16.0417C0 7.1821 7.1821 0 16.0417 0C24.9012 0 32.0833 7.1821 32.0833 16.0417C32.0833 24.9012 24.9012 32.0833 16.0417 32.0833C7.1821 32.0833 0 24.9012 0 16.0417Z" fill="#9909E3"/>
<path fill-rule="evenodd" clip-rule="evenodd" d="M13.125 10.2083C13.9304 10.2083 14.5833 10.8613 14.5833 11.6667V20.4167C14.5833 21.2221 13.9304 21.875 13.125 21.875C12.3196 21.875 11.6667 21.2221 11.6667 20.4167V11.6667C11.6667 10.8613 12.3196 10.2083 13.125 10.2083Z" fill="#9909E3"/>
<path fill-rule="evenodd" clip-rule="evenodd" d="M18.9583 10.2083C19.7637 10.2083 20.4167 10.8613 20.4167 11.6667V20.4167C20.4167 21.2221 19.7637 21.875 18.9583 21.875C18.1529 21.875 17.5 21.2221 17.5 20.4167V11.6667C17.5 10.8613 18.1529 10.2083 18.9583 10.2083Z" fill="#9909E3"/>
</svg>
