<svg width="31" height="28" viewBox="0 0 31 28" fill="none" xmlns="http://www.w3.org/2000/svg">
<mask id="path-1-inside-1" fill="white">
<path fill-rule="evenodd" clip-rule="evenodd" d="M19.8034 5.53009C21.9392 5.55689 23.6775 5.60286 24.5962 5.66513C26.8373 5.79601 27.9666 6.34127 28.9187 8.05913C29.8688 9.71341 30.2667 12.2961 30.2667 16.5051C30.2667 20.731 29.865 23.3288 28.925 24.9399C27.9757 26.659 26.8644 27.1998 24.5962 27.3586C22.9956 27.4521 18.9781 27.515 15.137 27.515C11.2873 27.515 7.26779 27.4521 5.65244 27.3576C3.40491 27.1997 2.29341 26.6599 1.34537 24.9594C0.402815 23.3162 0 20.7079 0 16.5205C0 12.3093 0.400873 9.71399 1.33714 8.06541C2.29767 6.34278 3.42717 5.79632 5.65575 5.66595C6.58153 5.60316 8.32351 5.55699 10.4633 5.53013L7.28174 2.34858C6.74447 1.81131 6.74447 0.940229 7.28174 0.402963C7.819 -0.134304 8.69008 -0.134304 9.22735 0.402963L14.3281 5.50368C14.5959 5.50318 14.8658 5.50293 15.137 5.50293C15.4058 5.50293 15.6731 5.50318 15.9386 5.50367L21.0393 0.402963C21.5766 -0.134304 22.4477 -0.134304 22.9849 0.402963C23.5222 0.940229 23.5222 1.81131 22.9849 2.34858L19.8034 5.53009ZM26.5292 9.42334C26.0848 8.61909 25.8249 8.49309 24.423 8.41116C22.965 8.31239 19.1983 8.25444 15.137 8.25444C11.0669 8.25444 7.2985 8.31237 5.82922 8.41196C4.44155 8.49318 4.17783 8.62077 3.73504 9.41479C3.09207 10.547 2.75152 12.7518 2.75152 16.5051C2.75152 20.2607 3.09389 22.4777 3.74032 23.6049C4.17632 24.3868 4.43821 24.514 5.82913 24.6118C7.35857 24.7012 11.3392 24.7635 15.137 24.7635C18.9263 24.7635 22.9049 24.7012 24.4198 24.6128C25.8281 24.5141 26.0863 24.3885 26.5322 23.5818C27.1743 22.4808 27.5152 20.2762 27.5152 16.5205C27.5152 12.7363 27.1761 10.5437 26.5292 9.42334ZM19.2606 16.509L12.3818 12.3817V20.6363L19.2606 16.509Z"/>
</mask>
<path fill-rule="evenodd" clip-rule="evenodd" d="M19.8034 5.53009C21.9392 5.55689 23.6775 5.60286 24.5962 5.66513C26.8373 5.79601 27.9666 6.34127 28.9187 8.05913C29.8688 9.71341 30.2667 12.2961 30.2667 16.5051C30.2667 20.731 29.865 23.3288 28.925 24.9399C27.9757 26.659 26.8644 27.1998 24.5962 27.3586C22.9956 27.4521 18.9781 27.515 15.137 27.515C11.2873 27.515 7.26779 27.4521 5.65244 27.3576C3.40491 27.1997 2.29341 26.6599 1.34537 24.9594C0.402815 23.3162 0 20.7079 0 16.5205C0 12.3093 0.400873 9.71399 1.33714 8.06541C2.29767 6.34278 3.42717 5.79632 5.65575 5.66595C6.58153 5.60316 8.32351 5.55699 10.4633 5.53013L7.28174 2.34858C6.74447 1.81131 6.74447 0.940229 7.28174 0.402963C7.819 -0.134304 8.69008 -0.134304 9.22735 0.402963L14.3281 5.50368C14.5959 5.50318 14.8658 5.50293 15.137 5.50293C15.4058 5.50293 15.6731 5.50318 15.9386 5.50367L21.0393 0.402963C21.5766 -0.134304 22.4477 -0.134304 22.9849 0.402963C23.5222 0.940229 23.5222 1.81131 22.9849 2.34858L19.8034 5.53009ZM26.5292 9.42334C26.0848 8.61909 25.8249 8.49309 24.423 8.41116C22.965 8.31239 19.1983 8.25444 15.137 8.25444C11.0669 8.25444 7.2985 8.31237 5.82922 8.41196C4.44155 8.49318 4.17783 8.62077 3.73504 9.41479C3.09207 10.547 2.75152 12.7518 2.75152 16.5051C2.75152 20.2607 3.09389 22.4777 3.74032 23.6049C4.17632 24.3868 4.43821 24.514 5.82913 24.6118C7.35857 24.7012 11.3392 24.7635 15.137 24.7635C18.9263 24.7635 22.9049 24.7012 24.4198 24.6128C25.8281 24.5141 26.0863 24.3885 26.5322 23.5818C27.1743 22.4808 27.5152 20.2762 27.5152 16.5205C27.5152 12.7363 27.1761 10.5437 26.5292 9.42334ZM19.2606 16.509L12.3818 12.3817V20.6363L19.2606 16.509Z" fill="#A7D365"/>
<path d="M24.5962 5.66513L24.5624 6.16401L24.5671 6.16428L24.5962 5.66513ZM19.8034 5.53009L19.4499 5.17654L18.6112 6.01518L19.7971 6.03005L19.8034 5.53009ZM28.9187 8.05913L28.4813 8.30154L28.4851 8.30814L28.9187 8.05913ZM28.925 24.9399L28.493 24.6878L28.4872 24.6982L28.925 24.9399ZM24.5962 27.3586L24.6254 27.8578L24.6311 27.8574L24.5962 27.3586ZM5.65244 27.3576L5.61741 27.8564L5.62323 27.8567L5.65244 27.3576ZM1.34537 24.9594L1.78212 24.7159L1.77908 24.7106L1.34537 24.9594ZM1.33714 8.06541L1.77193 8.31234L1.77384 8.30891L1.33714 8.06541ZM5.65575 5.66595L5.68495 6.16511L5.68958 6.1648L5.65575 5.66595ZM10.4633 5.53013L10.4696 6.03009L11.6555 6.0152L10.8168 5.17657L10.4633 5.53013ZM7.28174 2.34858L7.63529 1.99502L7.63529 1.99502L7.28174 2.34858ZM7.28174 0.402963L7.63529 0.756516L7.63529 0.756516L7.28174 0.402963ZM9.22735 0.402963L8.8738 0.756516L9.22735 0.402963ZM14.3281 5.50368L13.9745 5.85723L14.1213 6.00407L14.329 6.00368L14.3281 5.50368ZM15.9386 5.50367L15.9377 6.00367L16.1453 6.00405L16.2922 5.85722L15.9386 5.50367ZM21.0393 0.402963L21.3929 0.756516L21.3929 0.756516L21.0393 0.402963ZM22.9849 0.402963L22.6314 0.756516L22.6314 0.756516L22.9849 0.402963ZM22.9849 2.34858L22.6314 1.99502L22.6314 1.99502L22.9849 2.34858ZM24.423 8.41116L24.3892 8.91004L24.3938 8.91031L24.423 8.41116ZM26.5292 9.42334L26.0915 9.66519L26.0962 9.67336L26.5292 9.42334ZM5.82922 8.41196L5.85843 8.91112L5.86303 8.91081L5.82922 8.41196ZM3.73504 9.41479L4.16983 9.66171L4.17173 9.65831L3.73504 9.41479ZM3.74032 23.6049L4.17705 23.3614L4.17405 23.3561L3.74032 23.6049ZM5.82913 24.6118L5.79406 25.1106L5.79995 25.1109L5.82913 24.6118ZM24.4198 24.6128L24.4489 25.112L24.4548 25.1116L24.4198 24.6128ZM26.5322 23.5818L26.1002 23.3298L26.0946 23.3399L26.5322 23.5818ZM12.3818 12.3817L12.6391 11.953L11.8818 11.4986V12.3817H12.3818ZM19.2606 16.509L19.5179 16.9377L20.2324 16.509L19.5179 16.0802L19.2606 16.509ZM12.3818 20.6363H11.8818V21.5194L12.6391 21.065L12.3818 20.6363ZM24.63 5.16628C23.6957 5.10295 21.9446 5.05691 19.8097 5.03013L19.7971 6.03005C21.9339 6.05686 23.6592 6.10277 24.5624 6.16399L24.63 5.16628ZM29.356 7.81674C28.8483 6.90066 28.267 6.25224 27.4781 5.8269C26.7018 5.40834 25.7734 5.23302 24.6254 5.16598L24.5671 6.16428C25.6602 6.22812 26.417 6.39087 27.0035 6.70712C27.5776 7.01659 28.037 7.49973 28.4814 8.30152L29.356 7.81674ZM30.7667 16.5051C30.7667 12.294 30.3745 9.59005 29.3523 7.81012L28.4851 8.30814C29.3631 9.83678 29.7667 12.2982 29.7667 16.5051H30.7667ZM29.3568 25.1919C30.3714 23.4531 30.7667 20.7308 30.7667 16.5051H29.7667C29.7667 20.7312 29.3586 23.2045 28.4931 24.6879L29.3568 25.1919ZM24.6311 27.8574C25.7904 27.7762 26.7203 27.5946 27.4941 27.1736C28.2814 26.7453 28.8569 26.0975 29.3627 25.1816L28.4872 24.6982C28.0438 25.5013 27.589 25.9835 27.0163 26.2951C26.4301 26.614 25.6702 26.7822 24.5613 26.8598L24.6311 27.8574ZM15.137 28.015C18.9773 28.015 23.0084 27.9522 24.6254 27.8578L24.5671 26.8595C22.9829 26.952 18.9788 27.015 15.137 27.015V28.015ZM5.62323 27.8567C7.25501 27.9522 11.2881 28.015 15.137 28.015V27.015C11.2865 27.015 7.28058 26.952 5.68165 26.8584L5.62323 27.8567ZM0.908656 25.2029C1.41422 26.1097 1.98957 26.7516 2.77326 27.1765C3.54385 27.5943 4.46794 27.7756 5.61741 27.8564L5.68748 26.8588C4.58941 26.7817 3.83398 26.6141 3.24992 26.2974C2.67898 25.9878 2.22455 25.5096 1.78208 24.7159L0.908656 25.2029ZM-0.5 16.5205C-0.5 20.7101 -0.102894 23.4395 0.911659 25.2082L1.77908 24.7106C0.908524 23.193 0.5 20.7057 0.5 16.5205H-0.5ZM0.902366 7.81849C-0.104676 9.59169 -0.5 12.3068 -0.5 16.5205H0.5C0.5 12.3119 0.906423 9.83629 1.77192 8.31233L0.902366 7.81849ZM5.62654 5.1668C4.48429 5.23362 3.55896 5.40924 2.7831 5.82876C1.99522 6.25479 1.41216 6.90419 0.900442 7.82191L1.77384 8.30891C2.22265 7.50401 2.68461 7.01886 3.25875 6.7084C3.84492 6.39144 4.59863 6.22864 5.68495 6.16509L5.62654 5.1668ZM10.457 5.03016C8.31812 5.05702 6.56325 5.10325 5.62192 5.16709L5.68958 6.1648C6.59981 6.10307 8.3289 6.05696 10.4696 6.03009L10.457 5.03016ZM10.8168 5.17657L7.63529 1.99502L6.92818 2.70213L10.1097 5.88368L10.8168 5.17657ZM7.63529 1.99502C7.29329 1.65302 7.29329 1.09852 7.63529 0.756516L6.92818 0.0494094C6.19565 0.781938 6.19565 1.9696 6.92818 2.70213L7.63529 1.99502ZM7.63529 0.756516C7.97729 0.414511 8.53179 0.414511 8.8738 0.756516L9.5809 0.0494094C8.84838 -0.68312 7.66071 -0.68312 6.92818 0.0494094L7.63529 0.756516ZM8.8738 0.756516L13.9745 5.85723L14.6816 5.15013L9.5809 0.0494094L8.8738 0.756516ZM15.137 5.00293C14.8654 5.00293 14.5953 5.00318 14.3271 5.00368L14.329 6.00368C14.5965 6.00318 14.8661 6.00293 15.137 6.00293V5.00293ZM15.9395 5.00367C15.6738 5.00318 15.4061 5.00293 15.137 5.00293V6.00293C15.4054 6.00293 15.6725 6.00318 15.9377 6.00367L15.9395 5.00367ZM16.2922 5.85722L21.3929 0.756516L20.6858 0.0494093L15.5851 5.15012L16.2922 5.85722ZM21.3929 0.756516C21.7349 0.414512 22.2894 0.414512 22.6314 0.756516L23.3385 0.0494097C22.606 -0.68312 21.4183 -0.68312 20.6858 0.0494097L21.3929 0.756516ZM22.6314 0.756516C22.9734 1.09852 22.9734 1.65302 22.6314 1.99502L23.3385 2.70213C24.071 1.9696 24.071 0.781938 23.3385 0.049409L22.6314 0.756516ZM22.6314 1.99502L19.4499 5.17654L20.157 5.88365L23.3385 2.70213L22.6314 1.99502ZM24.3938 8.91031C25.112 8.95228 25.4263 9.00454 25.6184 9.09696C25.7666 9.16825 25.8795 9.28131 26.0915 9.66514L26.9668 9.18153C26.7345 8.76112 26.4952 8.40905 26.0519 8.1958C25.6525 8.00367 25.1359 7.95197 24.4522 7.91201L24.3938 8.91031ZM15.137 8.75444C19.2016 8.75444 22.9511 8.81259 24.3892 8.91002L24.4568 7.9123C22.979 7.81219 19.195 7.75444 15.137 7.75444V8.75444ZM5.86303 8.91081C7.31247 8.81257 11.0637 8.75444 15.137 8.75444V7.75444C11.0702 7.75444 7.28453 7.81217 5.7954 7.9131L5.86303 8.91081ZM4.17173 9.65831C4.38223 9.28082 4.49549 9.16811 4.64395 9.09694C4.83564 9.00504 5.14834 8.95266 5.85843 8.9111L5.8 7.91281C5.12243 7.95247 4.60943 8.0045 4.21165 8.19521C3.77063 8.40664 3.53063 8.75473 3.29835 9.17127L4.17173 9.65831ZM3.25152 16.5051C3.25152 14.641 3.33625 13.1772 3.49717 12.0475C3.65906 10.911 3.89344 10.1484 4.16982 9.6617L3.30026 9.16788C2.93367 9.8134 2.67629 10.7192 2.50716 11.9065C2.33706 13.1006 2.25152 14.616 2.25152 16.5051H3.25152ZM4.17405 23.3561C3.89692 22.8729 3.6613 22.1095 3.49848 20.97C3.3367 19.8377 3.25152 18.3704 3.25152 16.5051H2.25152C2.25152 18.3955 2.33752 19.9145 2.50853 21.1114C2.67851 22.301 2.93729 23.2097 3.30659 23.8536L4.17405 23.3561ZM5.86419 24.113C5.15243 24.063 4.83716 24.0078 4.6439 23.9146C4.49477 23.8426 4.38335 23.7314 4.17702 23.3614L3.30362 23.8484C3.53329 24.2603 3.77081 24.6036 4.20936 24.8152C4.60377 25.0055 5.1149 25.0628 5.79406 25.1106L5.86419 24.113ZM15.137 24.2635C11.3382 24.2635 7.37128 24.2011 5.85831 24.1126L5.79995 25.1109C7.34587 25.2013 11.3401 25.2635 15.137 25.2635V24.2635ZM24.3907 24.1137C22.8922 24.2011 18.9273 24.2635 15.137 24.2635V25.2635C18.9253 25.2635 22.9176 25.2013 24.4489 25.112L24.3907 24.1137ZM26.0946 23.3399C25.8818 23.725 25.7683 23.8399 25.6177 23.9134C25.4233 24.0083 25.1065 24.0635 24.3849 24.114L24.4548 25.1116C25.1414 25.0635 25.658 25.0065 26.0562 24.8122C26.4981 24.5965 26.7367 24.2453 26.9698 23.8236L26.0946 23.3399ZM27.0152 16.5205C27.0152 18.3859 26.9303 19.8501 26.7695 20.976C26.6075 22.1097 26.3734 22.8615 26.1003 23.3298L26.9641 23.8337C27.333 23.2011 27.5905 22.3001 27.7594 21.1174C27.9295 19.9268 28.0152 18.4108 28.0152 16.5205H27.0152ZM26.0962 9.67336C26.373 10.1528 26.6078 10.9079 26.7698 12.0436C26.9308 13.1723 27.0152 14.6406 27.0152 16.5205H28.0152C28.0152 14.6162 27.93 13.0961 27.7597 11.9024C27.5905 10.7156 27.3323 9.81427 26.9622 9.17332L26.0962 9.67336ZM12.1246 12.8105L19.0034 16.9377L19.5179 16.0802L12.6391 11.953L12.1246 12.8105ZM12.8818 20.6363V12.3817H11.8818V20.6363H12.8818ZM19.0034 16.0802L12.1246 20.2075L12.6391 21.065L19.5179 16.9377L19.0034 16.0802Z" fill="white" mask="url(#path-1-inside-1)"/>
</svg>
