<svg width="29" height="21" viewBox="0 0 29 21" fill="none" xmlns="http://www.w3.org/2000/svg">
<path d="M15.241 6L13.6823 14H11.0547L11.6337 11.0514H9.20651L8.62756 14H6L7.55872 6H10.1863L9.62959 8.83429H12.0567L12.6134 6H15.241Z" fill="#202124"/>
<path d="M16.507 6H20.0253C20.8417 6 21.5469 6.13714 22.1407 6.41143C22.7419 6.68571 23.2021 7.0781 23.5213 7.58857C23.8404 8.09905 24 8.70095 24 9.39429C24 10.3162 23.7922 11.1276 23.3765 11.8286C22.9609 12.5219 22.3819 13.059 21.6397 13.44C20.9048 13.8133 20.0661 14 19.1234 14H14.9483L16.507 6ZM19.2125 11.8971C19.8879 11.8971 20.4112 11.68 20.7824 11.2457C21.1609 10.8038 21.3502 10.24 21.3502 9.55429C21.3502 9.08952 21.2091 8.73143 20.9271 8.48C20.6525 8.22857 20.2517 8.10286 19.7247 8.10286H18.7226L17.9878 11.8971H19.2125Z" fill="#202124"/>
<rect x="1" y="1" width="27" height="19" rx="4" stroke="#A7D365" stroke-width="2"/>
</svg>
