<svg width="28" height="28" viewBox="0 0 28 28" fill="none" xmlns="http://www.w3.org/2000/svg">
<path fill-rule="evenodd" clip-rule="evenodd" d="M12.1911 8.72076C12.9039 7.76019 13.1595 6.74784 12.3534 5.85424C10.5443 3.32288 9.32768 1.75749 8.56454 1.00363C7.11372 -0.429538 4.7271 -0.235679 3.47059 1.00241C2.7957 1.6674 2.56722 1.89576 1.87426 2.59961C-1.98563 6.46158 0.368331 14.6256 6.62602 20.8895C12.8823 27.1519 21.0456 29.5071 24.9136 25.637C25.553 25.0206 26.0944 24.4789 26.5214 24.0275C27.7528 22.7261 27.9397 20.4447 26.5133 18.9626C25.782 18.2028 24.2893 17.0449 21.6514 15.158C20.8435 14.4356 19.8856 14.5921 19.0074 15.1683C18.5849 15.4455 18.2775 15.7258 17.697 16.3069L16.6428 17.3617C16.5039 17.5006 14.6186 16.5564 12.7885 14.7245C10.9574 12.8915 10.0138 11.0061 10.152 10.8679L11.2069 9.81245C11.3911 9.62809 11.4792 9.53883 11.5921 9.42015C11.8273 9.17289 12.0221 8.9485 12.1911 8.72076ZM18.5873 19.3073L19.6417 18.2523C19.9612 17.9325 20.1683 17.7359 20.3367 17.6003C22.6475 19.2597 23.9858 20.3032 24.5324 20.8712C24.8606 21.2122 24.8096 21.8344 24.5243 22.136C24.1295 22.5533 23.6165 23.0665 22.987 23.6737C20.4858 26.176 13.8962 24.2748 8.57099 18.9443C3.24408 13.6121 1.34379 7.02155 3.82609 4.53788C4.51626 3.83692 4.73492 3.61837 5.40017 2.96287C5.64961 2.7171 6.32904 2.66191 6.63247 2.96165C7.22001 3.54204 8.30988 4.93755 9.91315 7.17087C9.83015 7.27391 9.72648 7.39036 9.60033 7.52294C9.50774 7.62026 9.4306 7.69845 9.26196 7.86726L8.2081 8.9217C6.41529 10.7144 7.94211 13.7654 10.8435 16.6697C13.7429 19.5719 16.7951 21.1005 18.5873 19.3073ZM16.0412 0.0968771C21.989 0.817826 26.7052 5.53399 27.4261 11.4818L24.7084 11.9348C24.1837 7.14389 20.3791 3.33935 15.5882 2.8146L16.0412 0.0968771ZM15.1349 5.53467C18.769 5.8597 21.6633 8.75403 21.9884 12.3881L19.2619 12.8425C19.1462 10.3649 17.1581 8.37681 14.6805 8.26111L15.1349 5.53467Z" fill="#291536"/>
</svg>
