<svg width="15" height="7" viewBox="0 0 15 7" fill="none" xmlns="http://www.w3.org/2000/svg">
<path d="M14.8564 3.8488L11.9082 6.85567C11.8135 6.95189 11.6951 7 11.5767 7C11.4583 7 11.3399 6.95189 11.2452 6.85567C11.0557 6.66323 11.0557 6.36254 11.2452 6.1701L13.3882 3.9811H0.473604C0.213122 3.9811 0 3.7646 0 3.5C0 3.23539 0.213122 3.0189 0.473604 3.0189H13.3882L11.2452 0.829898C11.0557 0.637459 11.0557 0.33677 11.2452 0.14433C11.4346 -0.04811 11.7306 -0.04811 11.9201 0.14433L14.8682 3.1512C15.0458 3.35567 15.0458 3.66838 14.8564 3.8488Z" fill="#5B24F2"/>
</svg>
