<svg width="29" height="29" viewBox="0 0 29 29" fill="none" xmlns="http://www.w3.org/2000/svg">
<path fill-rule="evenodd" clip-rule="evenodd" d="M6.80888 5.10666H27.2228C28.1699 5.10666 28.7051 5.84352 28.4294 6.71633L24.3394 19.6681C24.0587 20.5571 23.0553 21.2778 22.1247 21.2778H5.11087C4.16844 21.2778 3.40444 20.5195 3.40444 19.5777V5.10489C3.40444 4.15795 2.64233 3.40444 1.70222 3.40444C0.755556 3.40444 0 2.64233 0 1.70222C0 0.755556 0.76925 0 1.71817 0H3.40444C5.29777 0 6.80888 1.52794 6.80888 3.41275V5.10666ZM5.95788 28.938C7.36804 28.938 8.51121 27.7949 8.51121 26.3847C8.51121 24.9745 7.36804 23.8314 5.95788 23.8314C4.54771 23.8314 3.40455 24.9745 3.40455 26.3847C3.40455 27.7949 4.54771 28.938 5.95788 28.938ZM17.8729 28.938C19.2831 28.938 20.4262 27.7949 20.4262 26.3847C20.4262 24.9745 19.2831 23.8314 17.8729 23.8314C16.4627 23.8314 15.3196 24.9745 15.3196 26.3847C15.3196 27.7949 16.4627 28.938 17.8729 28.938Z" fill="url(#paint0_linear)"/>
<defs>
<linearGradient id="paint0_linear" x1="14.2509" y1="0" x2="14.2509" y2="28.938" gradientUnits="userSpaceOnUse">
<stop stop-color="#D981AB"/>
<stop offset="1" stop-color="#DC7CDE"/>
</linearGradient>
</defs>
</svg>
