<svg width="36" height="22" viewBox="0 0 36 22" fill="none" xmlns="http://www.w3.org/2000/svg">
<path d="M28.2197 2.96166L20.8292 18.8855C20.1816 20.5236 19.0387 21.476 17.7816 21.476C16.753 21.476 15.8768 20.9426 15.3816 20.1045C14.8482 19.114 14.8863 17.895 15.5339 16.8664L25.2101 1.36168C25.7054 0.599774 26.6959 0.333163 27.4959 0.752211C28.2959 1.17126 28.6006 2.12357 28.2197 2.96166ZM30.8101 7.57122C30.2387 6.9617 29.2863 6.92362 28.6387 7.49505C28.0292 8.06648 27.9911 9.01884 28.5625 9.66646C31.0768 12.4093 32.4863 15.9903 32.4863 19.7617C32.4863 20.5998 33.172 21.2855 34.0101 21.2855C34.8482 21.2855 35.5339 20.5998 35.5339 19.7617C35.5339 15.2284 33.8577 10.8855 30.8101 7.57122ZM19.2292 5.0569C20.0673 5.13309 20.7911 4.52362 20.8673 3.68553C20.9435 2.84743 20.334 2.1236 19.4959 2.04741C19.0006 2.00932 18.5054 1.97124 18.0101 1.97124C8.33395 1.97124 0.486328 9.97126 0.486328 19.7998C0.486328 20.6379 1.17204 21.3236 2.01014 21.3236C2.84823 21.3236 3.53395 20.6379 3.53395 19.7998C3.53395 11.6475 10.0101 5.01886 18.0101 5.01886C18.4292 4.98076 18.8482 5.0188 19.2292 5.0569Z" fill="#9909E3"/>
</svg>
