<svg width="31" height="31" viewBox="0 0 31 31" fill="none" xmlns="http://www.w3.org/2000/svg">
<path d="M21.8891 19.8775L19.6385 18.2946C18.613 19.7526 16.9486 20.6364 15.1333 20.6364C13.318 20.6364 11.6536 19.7526 10.6282 18.2946L8.37759 19.8775C9.91296 22.0605 12.4127 23.3879 15.1333 23.3879C17.854 23.3879 20.3537 22.0605 21.8891 19.8775Z" fill="#291536"/>
<path d="M17.8848 13.7576V11.0061H20.6364V13.7576H17.8848Z" fill="#291536"/>
<path d="M9.6303 11.0061V13.7576H12.3818V11.0061H9.6303Z" fill="#291536"/>
<path fill-rule="evenodd" clip-rule="evenodd" d="M15.1333 30.2667C6.77542 30.2667 0 23.4912 0 15.1333C0 6.77542 6.77542 0 15.1333 0C23.4912 0 30.2667 6.77542 30.2667 15.1333C30.2667 23.4912 23.4912 30.2667 15.1333 30.2667ZM15.1333 27.5152C21.9716 27.5152 27.5152 21.9716 27.5152 15.1333C27.5152 8.29504 21.9716 2.75152 15.1333 2.75152C8.29504 2.75152 2.75152 8.29504 2.75152 15.1333C2.75152 21.9716 8.29504 27.5152 15.1333 27.5152Z" fill="#291536"/>
</svg>
