<svg width="30" height="33" viewBox="0 0 30 33" fill="none" xmlns="http://www.w3.org/2000/svg">
<path fill-rule="evenodd" clip-rule="evenodd" d="M4.375 16.0417C3.56959 16.0417 2.91667 16.6946 2.91667 17.5V27.7083C2.91667 28.5137 3.56959 29.1667 4.375 29.1667H24.7917C25.5971 29.1667 26.25 28.5137 26.25 27.7083V17.5C26.25 16.6946 25.5971 16.0417 24.7917 16.0417H4.375ZM0 17.5C0 15.0838 1.95875 13.125 4.375 13.125H24.7917C27.2079 13.125 29.1667 15.0838 29.1667 17.5V27.7083C29.1667 30.1246 27.2079 32.0833 24.7917 32.0833H4.375C1.95875 32.0833 0 30.1246 0 27.7083V17.5Z" fill="#9909E3"/>
<path fill-rule="evenodd" clip-rule="evenodd" d="M14.5833 2.91667C13.0362 2.91667 11.5525 3.53125 10.4585 4.62521C9.36458 5.71917 8.75 7.2029 8.75 8.75V14.5833C8.75 15.3887 8.09708 16.0417 7.29167 16.0417C6.48625 16.0417 5.83333 15.3887 5.83333 14.5833V8.75C5.83333 6.42936 6.75521 4.20376 8.39615 2.56282C10.0371 0.921872 12.2627 0 14.5833 0C16.904 0 19.1296 0.921872 20.7705 2.56282C22.4115 4.20376 23.3333 6.42936 23.3333 8.75V14.5833C23.3333 15.3887 22.6804 16.0417 21.875 16.0417C21.0696 16.0417 20.4167 15.3887 20.4167 14.5833V8.75C20.4167 7.2029 19.8021 5.71917 18.7081 4.62521C17.6142 3.53125 16.1304 2.91667 14.5833 2.91667Z" fill="#9909E3"/>
</svg>
