<svg width="33" height="24" viewBox="0 0 33 24" fill="none" xmlns="http://www.w3.org/2000/svg">
<path fill-rule="evenodd" clip-rule="evenodd" d="M16.8593 0.148301C16.3589 0.393014 16.0417 0.901358 16.0417 1.45834V21.875C16.0417 22.432 16.3589 22.9403 16.8593 23.1851C17.3596 23.4298 17.9557 23.3681 18.3953 23.0261L31.5203 12.8178C31.8756 12.5415 32.0833 12.1167 32.0833 11.6667C32.0833 11.2167 31.8756 10.7918 31.5203 10.5155L18.3953 0.307206C17.9557 -0.0347508 17.3596 -0.0964114 16.8593 0.148301ZM28.2496 11.6667L18.9583 18.8932V4.44011L28.2496 11.6667Z" fill="#9909E3"/>
<path fill-rule="evenodd" clip-rule="evenodd" d="M0.817613 0.148301C0.317264 0.393014 0 0.901358 0 1.45834V21.875C0 22.432 0.317264 22.9403 0.817613 23.1851C1.31796 23.4298 1.91401 23.3681 2.35366 23.0261L15.4787 12.8178C15.8339 12.5415 16.0417 12.1167 16.0417 11.6667C16.0417 11.2167 15.8339 10.7918 15.4787 10.5155L2.35366 0.307206C1.91401 -0.0347508 1.31796 -0.0964114 0.817613 0.148301ZM12.208 11.6667L2.91667 18.8932V4.44011L12.208 11.6667Z" fill="#9909E3"/>
</svg>
