<svg width="35" height="35" viewBox="0 0 35 35" fill="none" xmlns="http://www.w3.org/2000/svg">
<path d="M8.00966 0L9.85761 1.69395C7.63893 3.74883 6.25012 6.68702 6.25012 9.94959C6.25012 13.2122 7.63893 16.1503 9.85761 18.2052L8.00966 19.8992C5.38527 17.3951 3.75012 13.8633 3.75012 9.94959C3.75012 6.03585 5.38527 2.50403 8.00966 0Z" fill="#9909E3"/>
<path fill-rule="evenodd" clip-rule="evenodd" d="M13.7501 9.95C13.7501 12.0211 15.4291 13.7 17.5001 13.7C19.5712 13.7 21.2501 12.0211 21.2501 9.95C21.2501 7.87893 19.5712 6.2 17.5001 6.2C15.4291 6.2 13.7501 7.87893 13.7501 9.95ZM18.7501 9.95C18.7501 10.6404 18.1905 11.2 17.5001 11.2C16.8098 11.2 16.2501 10.6404 16.2501 9.95C16.2501 9.25964 16.8098 8.7 17.5001 8.7C18.1905 8.7 18.7501 9.25964 18.7501 9.95Z" fill="#9909E3"/>
<path d="M13.5657 5.09308L11.7085 3.39056C9.89418 4.99379 8.75012 7.33808 8.75012 9.94959C8.75012 12.5611 9.89418 14.9054 11.7085 16.5086L13.5657 14.8061C12.153 13.6602 11.2501 11.9103 11.2501 9.94959C11.2501 7.98883 12.153 6.23896 13.5657 5.09308Z" fill="#9909E3"/>
<path d="M26.9906 0.000411277C29.615 2.50444 31.2501 6.03627 31.2501 9.95C31.2501 13.8637 29.615 17.3956 26.9906 19.8996L25.1426 18.2056C27.3613 16.1508 28.7501 13.2126 28.7501 9.95C28.7501 6.68743 27.3613 3.74924 25.1426 1.69436L26.9906 0.000411277Z" fill="#9909E3"/>
<path d="M26.2501 9.95C26.2501 7.33849 25.1061 4.9942 23.2918 3.39097L21.4345 5.09349C22.8472 6.23937 23.7501 7.98924 23.7501 9.95C23.7501 11.9108 22.8472 13.6606 21.4345 14.8065L23.2918 16.509C25.1061 14.9058 26.2501 12.5615 26.2501 9.95Z" fill="#9909E3"/>
<path fill-rule="evenodd" clip-rule="evenodd" d="M32.5 24.9497H2.5V32.4497H32.5V24.9497ZM0 22.4497V34.9497H35V22.4497H0Z" fill="#9909E3"/>
<path fill-rule="evenodd" clip-rule="evenodd" d="M16.25 23.7007V12.4507H18.75V23.7007H16.25Z" fill="#9909E3"/>
<path fill-rule="evenodd" clip-rule="evenodd" d="M7.50012 29.9497H5.00012V27.4497H7.50012V29.9497ZM12.5001 29.9497H10.0001V27.4497H12.5001V29.9497Z" fill="#9909E3"/>
</svg>
