<svg width="35" height="35" viewBox="0 0 35 35" fill="none" xmlns="http://www.w3.org/2000/svg">
<path fill-rule="evenodd" clip-rule="evenodd" d="M17.5 14.5833C15.8892 14.5833 14.5833 15.8892 14.5833 17.5C14.5833 19.1108 15.8892 20.4167 17.5 20.4167C19.1108 20.4167 20.4167 19.1108 20.4167 17.5C20.4167 15.8892 19.1108 14.5833 17.5 14.5833ZM11.6667 17.5C11.6667 14.2783 14.2783 11.6667 17.5 11.6667C20.7217 11.6667 23.3333 14.2783 23.3333 17.5C23.3333 20.7217 20.7217 23.3333 17.5 23.3333C14.2783 23.3333 11.6667 20.7217 11.6667 17.5Z" fill="#9909E3"/>
<path fill-rule="evenodd" clip-rule="evenodd" d="M17.5 2.91667C17.1132 2.91667 16.7423 3.07031 16.4688 3.3438C16.1953 3.61729 16.0417 3.98823 16.0417 4.375V4.62873C16.0387 5.38241 15.8153 6.11877 15.3992 6.74715C14.983 7.37553 14.3922 7.86851 13.6995 8.16541C13.5762 8.21826 13.4464 8.25372 13.314 8.27103C12.6846 8.49146 12.0069 8.5458 11.3473 8.42619C10.5875 8.28843 9.88641 7.92621 9.3344 7.38626L9.32291 7.37501L9.23547 7.28745C9.10003 7.15186 8.93862 7.04372 8.76158 6.97033C8.58454 6.89694 8.39477 6.85916 8.20312 6.85916C8.01148 6.85916 7.82171 6.89694 7.64467 6.97033C7.46763 7.04372 7.30679 7.15128 7.17135 7.28687L7.17021 7.28802C7.03462 7.42346 6.92705 7.5843 6.85366 7.76134C6.78027 7.93838 6.7425 8.12814 6.7425 8.31979C6.7425 8.51144 6.78027 8.70121 6.85366 8.87825C6.92705 9.05529 7.03462 9.21612 7.17021 9.35156L7.26966 9.45101C7.80961 10.003 8.17176 10.7042 8.30953 11.464C8.44455 12.2086 8.3579 12.9762 8.06087 13.6715C7.79025 14.3811 7.31643 14.9956 6.69819 15.4377C6.06746 15.8889 5.3156 16.1398 4.54035 16.1579L4.50625 16.1583H4.375C3.98823 16.1583 3.61729 16.312 3.3438 16.5855C3.07031 16.859 2.91667 17.2299 2.91667 17.6167C2.91667 18.0034 3.07031 18.3744 3.3438 18.6479C3.61729 18.9214 3.98823 19.075 4.375 19.075H4.62873C5.38241 19.078 6.11877 19.3013 6.74715 19.7175C7.37334 20.1322 7.86508 20.7203 8.16231 21.41C8.47158 22.1145 8.56349 22.8955 8.42619 23.6527C8.28843 24.4125 7.92621 25.1136 7.38626 25.6656L7.37501 25.6771L7.28744 25.7645C7.15185 25.9 7.04372 26.0614 6.97033 26.2384C6.89694 26.4155 6.85916 26.6052 6.85916 26.7969C6.85916 26.9885 6.89694 27.1783 6.97033 27.3553C7.04372 27.5324 7.15128 27.6932 7.28687 27.8286L7.28802 27.8298C7.42346 27.9654 7.5843 28.0729 7.76134 28.1463C7.93838 28.2197 8.12815 28.2575 8.31979 28.2575C8.51144 28.2575 8.70121 28.2197 8.87825 28.1463C9.05529 28.0729 9.21613 27.9654 9.35156 27.8298L9.45101 27.7303C10.003 27.1904 10.7042 26.8282 11.464 26.6905C12.2086 26.5555 12.9762 26.6421 13.6715 26.9391C14.3811 27.2097 14.9956 27.6836 15.4377 28.3018C15.8889 28.9325 16.1398 29.6844 16.1579 30.4596L16.1583 30.4938V30.625C16.1583 31.0118 16.312 31.3827 16.5855 31.6562C16.859 31.9297 17.2299 32.0833 17.6167 32.0833C18.0034 32.0833 18.3744 31.9297 18.6479 31.6562C18.9214 31.3827 19.075 31.0118 19.075 30.625V30.3771L19.075 30.3713C19.078 29.6176 19.3013 28.8812 19.7175 28.2529C20.1322 27.6266 20.7204 27.1348 21.4101 26.8376C22.1147 26.5284 22.8955 26.4365 23.6527 26.5738C24.4125 26.7116 25.1136 27.0738 25.6656 27.6137L25.6771 27.625L25.7645 27.7126C25.9 27.8481 26.0614 27.9563 26.2384 28.0297C26.4155 28.1031 26.6052 28.1408 26.7969 28.1408C26.9885 28.1408 27.1783 28.1031 27.3553 28.0297C27.5324 27.9563 27.6932 27.8487 27.8286 27.7131L27.8298 27.712C27.9654 27.5765 28.0729 27.4157 28.1463 27.2387C28.2197 27.0616 28.2575 26.8719 28.2575 26.6802C28.2575 26.4886 28.2197 26.2988 28.1463 26.1218C28.0729 25.9447 27.9654 25.7839 27.8298 25.6484L27.7303 25.549C27.1904 24.997 26.8282 24.2958 26.6905 23.536C26.5532 22.7789 26.6451 21.998 26.9543 21.2935C27.2515 20.6038 27.7433 20.0156 28.3695 19.6008C28.9979 19.1847 29.7343 18.9614 30.4879 18.9583L30.4938 18.9583L30.625 18.9583C31.0118 18.9583 31.3827 18.8047 31.6562 18.5312C31.9297 18.2577 32.0833 17.8868 32.0833 17.5C32.0833 17.1132 31.9297 16.7423 31.6562 16.4688C31.3827 16.1953 31.0118 16.0417 30.625 16.0417H30.3771L30.3713 16.0417C29.6176 16.0387 28.8812 15.8153 28.2529 15.3992C27.6245 14.983 27.1315 14.3922 26.8346 13.6995C26.7817 13.5762 26.7463 13.4464 26.729 13.314C26.5085 12.6845 26.4542 12.0069 26.5738 11.3473C26.7116 10.5875 27.0738 9.88641 27.6137 9.3344L27.625 9.32291L27.7125 9.23547C27.8481 9.10003 27.9563 8.93862 28.0297 8.76158C28.1031 8.58454 28.1408 8.39477 28.1408 8.20312C28.1408 8.01148 28.1031 7.82171 28.0297 7.64467C27.9563 7.46763 27.8487 7.3068 27.7131 7.17135L27.712 7.17021C27.5765 7.03462 27.4157 6.92705 27.2387 6.85366C27.0616 6.78027 26.8719 6.7425 26.6802 6.7425C26.4886 6.7425 26.2988 6.78027 26.1218 6.85366C25.9447 6.92705 25.7839 7.03462 25.6484 7.17021L25.549 7.26966C24.997 7.80961 24.2958 8.17176 23.536 8.30953C22.7788 8.44683 21.9979 8.35491 21.2933 8.04564C20.6037 7.74842 20.0155 7.25668 19.6008 6.63048C19.1847 6.0021 18.9614 5.26575 18.9583 4.51207L18.9583 4.50625V4.375C18.9583 3.98823 18.8047 3.61729 18.5312 3.3438C18.2577 3.07031 17.8868 2.91667 17.5 2.91667ZM28.2917 21.875L29.6258 22.4638C29.5494 22.6371 29.5266 22.8293 29.5603 23.0157C29.5938 23.2 29.681 23.3702 29.8111 23.5049L29.891 23.5849C30.2976 23.9911 30.6206 24.474 30.8407 25.0048C31.0608 25.536 31.1742 26.1053 31.1742 26.6802C31.1742 27.2552 31.0608 27.8245 30.8407 28.3556C30.6205 28.8867 30.2978 29.3692 29.891 29.7755L28.8604 28.7437L29.8922 29.7744C29.4859 30.1811 29.0034 30.5038 28.4722 30.724C27.9411 30.9442 27.3718 31.0575 26.7969 31.0575C26.2219 31.0575 25.6526 30.9442 25.1215 30.724C24.5906 30.5039 24.1083 30.1815 23.7021 29.7749L23.6216 29.6944C23.4869 29.5644 23.3167 29.4771 23.1323 29.4437C22.946 29.4099 22.7538 29.4327 22.5805 29.5092L22.5662 29.5155C22.3963 29.5883 22.2513 29.7092 22.1492 29.8633C22.0476 30.0168 21.9928 30.1966 21.9917 30.3807V30.625C21.9917 31.7853 21.5307 32.8981 20.7103 33.7186C19.8898 34.5391 18.777 35 17.6167 35C16.4563 35 15.3435 34.5391 14.5231 33.7186C13.7026 32.8981 13.2417 31.7853 13.2417 30.625V30.5147C13.2348 30.3292 13.1735 30.1497 13.0654 29.9986C12.9548 29.8439 12.8001 29.726 12.6216 29.6604C12.5928 29.6498 12.5643 29.6382 12.5362 29.6258C12.3629 29.5494 12.1707 29.5266 11.9843 29.5603C11.8 29.5938 11.6297 29.6811 11.495 29.8111L11.4151 29.891C11.0089 30.2976 10.526 30.6206 9.99516 30.8407C9.46404 31.0608 8.89474 31.1742 8.31979 31.1742C7.74485 31.1742 7.17554 31.0608 6.64443 30.8407C6.11382 30.6207 5.63171 30.2984 5.22563 29.8922C4.81885 29.4859 4.49616 29.0034 4.27599 28.4722C4.05582 27.9411 3.9425 27.3718 3.9425 26.7969C3.9425 26.2219 4.05582 25.6526 4.27599 25.1215C4.49616 24.5904 4.81885 24.1079 5.22563 23.7016L5.30558 23.6216C5.43562 23.4869 5.5229 23.3167 5.55632 23.1323C5.59011 22.946 5.5673 22.7538 5.49083 22.5805L5.48451 22.5662C5.41169 22.3963 5.29084 22.2513 5.13671 22.1492C4.98318 22.0476 4.80338 21.9928 4.61927 21.9917H4.375C3.21468 21.9917 2.10188 21.5307 1.28141 20.7103C0.460937 19.8898 0 18.777 0 17.6167C0 16.4563 0.460937 15.3435 1.28141 14.5231C2.10188 13.7026 3.21468 13.2417 4.375 13.2417H4.48531C4.6708 13.2348 4.85029 13.1735 5.00143 13.0654C5.15614 12.9548 5.27398 12.8001 5.33963 12.6216C5.35024 12.5928 5.36175 12.5643 5.37416 12.5362C5.45063 12.3629 5.47345 12.1707 5.43965 11.9843C5.40623 11.8 5.31895 11.6297 5.18889 11.495L5.10896 11.4151C4.70219 11.0088 4.37949 10.5263 4.15932 9.99516C3.93915 9.46404 3.82583 8.89473 3.82583 8.31979C3.82583 7.74485 3.93915 7.17554 4.15932 6.64443C4.37939 6.11356 4.70188 5.63125 5.10839 5.22505C5.51459 4.81855 5.99689 4.49606 6.52776 4.27599C7.05888 4.05582 7.62818 3.9425 8.20312 3.9425C8.77807 3.9425 9.34737 4.05582 9.87849 4.27599C10.4096 4.49616 10.8921 4.81885 11.2984 5.22563L11.3784 5.30556C11.5131 5.43561 11.6833 5.5229 11.8677 5.55632C12.054 5.59011 12.2462 5.5673 12.4195 5.49083C12.5129 5.44961 12.6101 5.41842 12.7095 5.39762C12.8112 5.3286 12.8989 5.24013 12.9674 5.13671C13.0691 4.98318 13.1238 4.80338 13.125 4.61927V4.375C13.125 3.21468 13.5859 2.10188 14.4064 1.28141C15.2269 0.460937 16.3397 0 17.5 0C18.6603 0 19.7731 0.460937 20.5936 1.28141C21.4141 2.10188 21.875 3.21468 21.875 4.375V4.5026C21.8762 4.68671 21.9309 4.86652 22.0326 5.02004C22.1347 5.17418 22.2796 5.2951 22.4495 5.36792L22.4639 5.37408C22.6371 5.45056 22.8293 5.47345 23.0157 5.43965C23.2 5.40623 23.3702 5.31896 23.5049 5.18891L23.5849 5.10896C23.9912 4.70219 24.4737 4.37949 25.0048 4.15932C25.536 3.93915 26.1053 3.82583 26.6802 3.82583C27.2552 3.82583 27.8245 3.93915 28.3556 4.15932C28.8867 4.37949 29.3692 4.70219 29.7755 5.10896C30.1818 5.51504 30.504 5.99714 30.724 6.52776C30.9442 7.05888 31.0575 7.62818 31.0575 8.20312C31.0575 8.77807 30.9442 9.34737 30.724 9.87849C30.5039 10.4094 30.1814 10.8917 29.775 11.2979L29.6944 11.3784C29.5644 11.5131 29.4771 11.6833 29.4437 11.8677C29.4099 12.054 29.4327 12.2462 29.5092 12.4195C29.5504 12.5129 29.5816 12.6101 29.6024 12.7095C29.6714 12.8112 29.7599 12.8989 29.8633 12.9674C30.0168 13.0691 30.1966 13.1238 30.3807 13.125H30.625C31.7853 13.125 32.8981 13.5859 33.7186 14.4064C34.5391 15.2269 35 16.3397 35 17.5C35 18.6603 34.5391 19.7731 33.7186 20.5936C32.8981 21.4141 31.7853 21.875 30.625 21.875H30.4974C30.3133 21.8762 30.1335 21.9309 29.98 22.0326C29.8258 22.1347 29.7049 22.2796 29.6321 22.4495L28.2917 21.875Z" fill="#9909E3"/>
</svg>
