<svg width="30" height="30" viewBox="0 0 30 30" fill="none" xmlns="http://www.w3.org/2000/svg">
<path fill-rule="evenodd" clip-rule="evenodd" d="M6.52937 8.29406V19.0586H22.5069L25.9063 8.29406H7.05874H6.52937ZM20.4976 22.0586H22.9366C23.9013 22.0586 24.9415 21.3115 25.2326 20.3898L29.4727 6.96279C29.7584 6.05796 29.2037 5.29406 28.2218 5.29406H10.0587H7.05874V3.53799C7.05874 1.58401 5.49218 0 3.52937 0H1.78122C0.797479 0 0 0.783282 0 1.76469C0 2.7393 0.783282 3.52937 1.76469 3.52937C2.7393 3.52937 3.52937 4.31053 3.52937 5.29222V20.2962C3.52937 21.0314 3.97859 21.6588 4.61772 21.9238C4.82725 22.0107 5.0572 22.0586 5.29842 22.0586H6.17651H8.14531H16.56H18.5288H20.4976ZM19.8498 25.0586C19.461 24.8342 19.0099 24.7059 18.5288 24.7059C18.0477 24.7059 17.5965 24.8342 17.2078 25.0586C16.4152 25.5159 15.8818 26.3721 15.8818 27.3529C15.8818 28.8148 17.0669 29.9999 18.5288 29.9999C19.9907 29.9999 21.1758 28.8148 21.1758 27.3529C21.1758 26.3721 20.6424 25.5159 19.8498 25.0586ZM7.49753 25.0586C7.10875 24.8342 6.65762 24.7059 6.17651 24.7059C5.86872 24.7059 5.5732 24.7584 5.29842 24.855C5.15503 24.9054 5.01729 24.9678 4.8864 25.041C4.07681 25.4938 3.52948 26.3594 3.52948 27.3529C3.52948 28.8148 4.71459 29.9999 6.17651 29.9999C7.63842 29.9999 8.82354 28.8148 8.82354 27.3529C8.82354 26.3721 8.2901 25.5159 7.49753 25.0586Z" fill="#291536"/>
</svg>
