<svg width="24" height="27" viewBox="0 0 24 27" fill="none" xmlns="http://www.w3.org/2000/svg">
<path fill-rule="evenodd" clip-rule="evenodd" d="M22.5067 0.143946C23.012 0.386788 23.3333 0.897756 23.3333 1.45835V24.7917C23.3333 25.3523 23.012 25.8632 22.5067 26.1061C22.0015 26.3489 21.4017 26.2806 20.964 25.9304L6.38065 14.2638C6.03471 13.987 5.83333 13.568 5.83333 13.125C5.83333 12.682 6.03471 12.263 6.38065 11.9862L20.964 0.31958C21.4017 -0.0306183 22.0015 -0.0988951 22.5067 0.143946ZM9.62614 13.125L20.4167 21.7574V4.49259L9.62614 13.125Z" fill="#9909E3"/>
<path fill-rule="evenodd" clip-rule="evenodd" d="M1.45833 1.45835C2.26375 1.45835 2.91667 2.11126 2.91667 2.91668V23.3333C2.91667 24.1388 2.26375 24.7917 1.45833 24.7917C0.652918 24.7917 0 24.1388 0 23.3333V2.91668C0 2.11126 0.652918 1.45835 1.45833 1.45835Z" fill="#9909E3"/>
</svg>
