<svg width="42" height="52" viewBox="0 0 42 52" fill="none" xmlns="http://www.w3.org/2000/svg">
<path fill-rule="evenodd" clip-rule="evenodd" d="M24 4L40 20V46.4C40 49.4928 37.4928 52 34.4 52H5.6C2.50721 52 0 49.4928 0 46.4V9.6C0 6.50721 2.50721 4 5.6 4H24Z" fill="#E94848"/>
<path fill-rule="evenodd" clip-rule="evenodd" d="M18.6535 21.6C17.6048 21.6 16.7424 22.4624 16.7424 23.5111C16.7424 24.8147 17.4668 26.4332 18.2295 27.9544C17.6333 29.8208 16.9567 31.8209 16.0914 33.5086C15.7781 33.6316 15.4707 33.7489 15.1717 33.8631L15.1717 33.8631C13.7811 34.3941 12.573 34.8554 11.7914 35.4854C11.7766 35.5005 11.7627 35.5165 11.7496 35.5332C11.4026 35.888 11.2002 36.3712 11.2002 36.8889C11.2002 37.9375 12.0626 38.8 13.1113 38.8C13.6227 38.8 14.1163 38.6091 14.473 38.2446C14.4853 38.2351 14.4973 38.2251 14.5088 38.2147C15.2078 37.3801 16.032 35.866 16.7663 34.4821C18.4587 33.8163 20.2326 33.1389 21.9442 32.7322C23.1938 33.7392 25.0015 34.4044 26.4891 34.4044C27.5378 34.4044 28.4002 33.542 28.4002 32.4933C28.4002 31.4446 27.5378 30.5822 26.4891 30.5822C25.2961 30.5822 23.5624 31.0081 22.2369 31.4541C21.1624 30.4455 20.1753 29.1857 19.4658 27.8469C19.5425 27.6106 19.6211 27.3743 19.6994 27.1392C20.1383 25.8204 20.5646 24.5394 20.5646 23.5111C20.5646 22.4624 19.7022 21.6 18.6535 21.6ZM18.6536 22.7467C19.0825 22.7467 19.418 23.0821 19.418 23.5111C19.418 24.0847 19.1108 25.1408 18.7551 26.2763C18.2797 25.1717 17.8891 24.112 17.8891 23.5111C17.8891 23.0821 18.2246 22.7467 18.6536 22.7467ZM20.9648 31.8065C20.23 31.0513 19.5568 30.2005 18.982 29.2862C18.5822 30.5029 18.1598 31.7385 17.6323 32.9293C18.7246 32.5135 19.8314 32.1164 20.9648 31.8065ZM26.4892 31.7289C26.9182 31.7289 27.2536 32.0644 27.2536 32.4934C27.2536 32.9223 26.9182 33.2578 26.4892 33.2578C25.628 33.2578 24.404 32.869 23.4254 32.3261C24.5486 32.0085 25.7742 31.7289 26.4892 31.7289ZM13.6369 37.4563C14.0106 37.0057 14.5448 36.1103 15.0822 35.151C13.9736 35.5947 12.9983 36.0104 12.55 36.3574C12.4327 36.4865 12.3469 36.687 12.3469 36.8889C12.3469 37.3179 12.6824 37.6533 13.1114 37.6533C13.3395 37.6533 13.5093 37.5783 13.6369 37.4563Z" fill="white"/>
<g filter="url(#filter0_d)">
<path fill-rule="evenodd" clip-rule="evenodd" d="M40 20H29.8828C26.79 20 24 17.21 24 14.1172V4L40 20Z" fill="white" fill-opacity="0.4"/>
</g>
<defs>
<filter id="filter0_d" x="22" y="0" width="20" height="20" filterUnits="userSpaceOnUse" color-interpolation-filters="sRGB">
<feFlood flood-opacity="0" result="BackgroundImageFix"/>
<feColorMatrix in="SourceAlpha" type="matrix" values="0 0 0 0 0 0 0 0 0 0 0 0 0 0 0 0 0 0 127 0"/>
<feOffset dy="-2"/>
<feGaussianBlur stdDeviation="1"/>
<feColorMatrix type="matrix" values="0 0 0 0 0 0 0 0 0 0 0 0 0 0 0 0 0 0 0.0909637 0"/>
<feBlend mode="normal" in2="BackgroundImageFix" result="effect1_dropShadow"/>
<feBlend mode="normal" in="SourceGraphic" in2="effect1_dropShadow" result="shape"/>
</filter>
</defs>
</svg>
