<svg width="27" height="27" viewBox="0 0 27 27" fill="none" xmlns="http://www.w3.org/2000/svg">
<circle cx="13.5" cy="13.5" r="13.5" fill="url(#paint0_linear)"/>
<path d="M7.43934 15.1431H8.42139C8.96411 18.2125 11.0833 20 14.0294 20C16.2003 20 18.1299 19.034 18.8536 17.2285C18.9569 16.9757 19 16.7229 19 16.4882C19 15.8382 18.552 15.4229 17.837 15.4229C17.3116 15.4229 17.0273 15.6757 16.7172 16.2354C16.1572 17.4 15.1665 17.8063 14.0208 17.8063C12.4874 17.8063 11.402 16.8222 10.9971 15.1431H14.9512C15.2182 15.1431 15.3905 14.9535 15.3905 14.6917C15.3905 14.4118 15.2182 14.2403 14.9512 14.2403H10.8421C10.8248 14.0056 10.8162 13.7528 10.8076 13.491C10.8162 13.2653 10.8248 13.0396 10.8421 12.8229H14.9512C15.2182 12.8229 15.3905 12.6333 15.3905 12.3715C15.3905 12.0917 15.2182 11.9201 14.9512 11.9201H10.9799C11.3848 10.2139 12.4702 9.20278 14.0122 9.20278C15.1407 9.20278 16.1141 9.69931 16.6913 10.8458C17.01 11.4056 17.3202 11.6583 17.8629 11.6583C18.5348 11.6583 18.9742 11.2431 18.9742 10.6111C18.9742 10.3222 18.8966 10.0153 18.733 9.71736C17.9146 7.99306 16.2347 7 13.9605 7C11.0833 7 8.94688 8.82361 8.41278 11.9201H7.43934C7.17229 11.9201 7 12.0917 7 12.3715C7 12.6333 7.17229 12.8229 7.43934 12.8229H8.3094C8.29218 13.0396 8.28356 13.2653 8.28356 13.5C8.28356 13.7528 8.29218 13.9965 8.3094 14.2403H7.43934C7.17229 14.2403 7 14.4118 7 14.6917C7 14.9535 7.17229 15.1431 7.43934 15.1431Z" fill="white"/>
<defs>
<linearGradient id="paint0_linear" x1="13.5" y1="0" x2="13.5" y2="27" gradientUnits="userSpaceOnUse">
<stop stop-color="#F0CA7A"/>
<stop offset="1" stop-color="#EEBB4B"/>
</linearGradient>
</defs>
</svg>
