<svg width="40" height="54" viewBox="0 0 40 54" fill="none" xmlns="http://www.w3.org/2000/svg">
<path fill-rule="evenodd" clip-rule="evenodd" d="M26.0503 0H3C1.34315 0 0 1.34315 0 3V51C0 52.6569 1.34315 54 3 54H37C38.6569 54 40 52.6569 40 51V13.9497L26.0503 0Z" fill="#6899D1"/>
<path fill-rule="evenodd" clip-rule="evenodd" d="M26.0503 0H26V11C26 12.6569 27.3431 14 29 14H40V13.9497L26.0503 0Z" fill="#4F75A0"/>
<path d="M10.1952 32.063C9.99117 32.063 9.81717 31.994 9.67317 31.856C9.52917 31.712 9.45717 31.532 9.45717 31.316C9.45717 31.094 9.52617 30.914 9.66417 30.776C9.80817 30.638 9.98517 30.569 10.1952 30.569C10.4052 30.569 10.5792 30.638 10.7172 30.776C10.8612 30.914 10.9332 31.094 10.9332 31.316C10.9332 31.532 10.8612 31.712 10.7172 31.856C10.5732 31.994 10.3992 32.063 10.1952 32.063ZM14.7324 25.7C15.2784 25.7 15.7524 25.79 16.1544 25.97C16.5624 26.15 16.8744 26.408 17.0904 26.744C17.3064 27.08 17.4144 27.479 17.4144 27.941C17.4144 28.397 17.3064 28.796 17.0904 29.138C16.8744 29.474 16.5624 29.732 16.1544 29.912C15.7524 30.092 15.2784 30.182 14.7324 30.182H13.3104V32H12.1404V25.7H14.7324ZM14.6784 29.192C15.1884 29.192 15.5754 29.084 15.8394 28.868C16.1034 28.652 16.2354 28.343 16.2354 27.941C16.2354 27.539 16.1034 27.23 15.8394 27.014C15.5754 26.798 15.1884 26.69 14.6784 26.69H13.3104V29.192H14.6784ZM18.5828 25.7H21.3368C22.0088 25.7 22.6058 25.832 23.1278 26.096C23.6498 26.354 24.0548 26.723 24.3428 27.203C24.6308 27.677 24.7748 28.226 24.7748 28.85C24.7748 29.474 24.6308 30.026 24.3428 30.506C24.0548 30.98 23.6498 31.349 23.1278 31.613C22.6058 31.871 22.0088 32 21.3368 32H18.5828V25.7ZM21.2828 31.01C21.7448 31.01 22.1498 30.923 22.4978 30.749C22.8518 30.569 23.1218 30.317 23.3078 29.993C23.4998 29.663 23.5958 29.282 23.5958 28.85C23.5958 28.418 23.4998 28.04 23.3078 27.716C23.1218 27.386 22.8518 27.134 22.4978 26.96C22.1498 26.78 21.7448 26.69 21.2828 26.69H19.7528V31.01H21.2828ZM27.1884 26.681V28.598H30.2304V29.588H27.1884V32H26.0184V25.7H30.6174V26.681H27.1884Z" fill="white"/>
</svg>
