<svg width="24" height="31" viewBox="0 0 24 31" fill="none" xmlns="http://www.w3.org/2000/svg">
<path fill-rule="evenodd" clip-rule="evenodd" d="M2.91667 3.25172V14.7969C3.76672 14.6635 4.73484 14.5833 5.83333 14.5833C8.58485 14.5833 10.8517 15.4906 12.6044 16.1921C12.6259 16.2007 12.6474 16.2093 12.6688 16.2178L12.7499 16.2503C14.6279 17.0015 15.9531 17.5 17.5 17.5C18.8551 17.5 19.7992 17.336 20.4167 17.1649V5.61974C19.5666 5.75321 18.5985 5.83333 17.5 5.83333C14.7485 5.83333 12.4817 4.9261 10.729 4.22461C10.7074 4.21599 10.6859 4.2074 10.6645 4.19884L10.5834 4.16639C8.70541 3.41518 7.38026 2.91667 5.83333 2.91667C4.47828 2.91667 3.53412 3.08071 2.91667 3.25172ZM1.27604 0.729167C2.18747 0.364596 3.6458 0 5.83333 0C8.02083 0 9.84453 0.72948 11.6643 1.4574L11.7481 1.4909C13.5419 2.20868 15.3461 2.91667 17.5 2.91667C19.253 2.91667 20.5371 2.68248 21.4457 2.40261C21.8881 2.26636 22.3689 2.34819 22.7412 2.62313C23.1136 2.89807 23.3333 3.33346 23.3333 3.79633V18.1737C23.3333 18.7278 23.0192 19.2341 22.5227 19.4803C22.3866 19.5477 22.2319 19.6177 22.0573 19.6875C21.1459 20.0521 19.6875 20.4167 17.5 20.4167C15.3125 20.4167 13.4888 19.6872 11.669 18.9593L11.5853 18.9258C9.79147 18.208 7.98721 17.5 5.83333 17.5C4.08035 17.5 2.79626 17.7342 1.88762 18.0141C1.44525 18.1503 0.964476 18.0685 0.592107 17.7935C0.219737 17.5186 0 17.0832 0 16.6203V2.24299C0 1.68883 0.31409 1.18255 0.810591 0.936408C0.946718 0.868922 1.10145 0.799004 1.27604 0.729167Z" fill="#9909E3"/>
<path fill-rule="evenodd" clip-rule="evenodd" d="M1.45833 11.6667C2.26375 11.6667 2.91667 12.3196 2.91667 13.125V29.1667C2.91667 29.9721 2.26375 30.625 1.45833 30.625C0.652918 30.625 0 29.9721 0 29.1667V13.125C0 12.3196 0.652918 11.6667 1.45833 11.6667Z" fill="#9909E3"/>
</svg>
