<svg width="18" height="41" viewBox="0 0 18 41" fill="none" xmlns="http://www.w3.org/2000/svg">
<path d="M12.3 35.3L9 38.6L5.7 35.3C5.3 34.9 4.7 34.9 4.3 35.3C3.9 35.7 3.9 36.3 4.3 36.7L8.3 40.7C8.5 40.9 8.75 41 9 41C9.25 41 9.5 40.9 9.7 40.7L13.7 36.7C14.1 36.3 14.1 35.7 13.7 35.3C13.3 34.9 12.7 34.9 12.3 35.3Z" fill="#FFD66D"/>
<path d="M13.7 29.8C13.3 29.4 12.7 29.4 12.3 29.8L9 33.1L5.7 29.8C5.3 29.4 4.7 29.4 4.3 29.8C3.9 30.2 3.9 30.8 4.3 31.2L8.3 35.2C8.5 35.4 8.75 35.5 9 35.5C9.25 35.5 9.5 35.4 9.7 35.2L13.7 31.2C14.1 30.8 14.1 30.2 13.7 29.8Z" fill="#FFD66D"/>
<path d="M18 18V9C18 4.05 13.95 0 9 0C4.05 0 0 4.05 0 9V18C0 22.95 4.05 27 9 27C13.95 27 18 22.95 18 18ZM9 25C5.15 25 2 21.85 2 18V9C2 5.15 5.15 2 9 2C12.85 2 16 5.15 16 9V18C16 21.85 12.85 25 9 25Z" fill="#FFD66D"/>
<path d="M9 5.49976C8.45 5.49976 8 5.94976 8 6.49976V9.49976C8 10.0498 8.45 10.4998 9 10.4998C9.55 10.4998 10 10.0498 10 9.49976V6.49976C10 5.94976 9.55 5.49976 9 5.49976Z" fill="#FFD66D"/>
</svg>
