<svg width="32" height="27" viewBox="0 0 32 27" fill="none" xmlns="http://www.w3.org/2000/svg">
<path fill-rule="evenodd" clip-rule="evenodd" d="M14.5455 2.84211C10.5288 2.84211 7.27273 6.02324 7.27273 9.94737V21.3158H2.90909C1.30244 21.3158 0 20.0433 0 18.4737V12.7895C0 11.2198 1.30244 9.94737 2.90909 9.94737H4.36364C4.36364 4.45359 8.92219 0 14.5455 0H17.4545C23.0778 0 27.6364 4.45359 27.6364 9.94737H29.0909C30.6976 9.94737 32 11.2198 32 12.7895V18.4737C32 20.0433 30.6976 21.3158 29.0909 21.3158H27.4531C26.8072 23.7674 24.5292 25.5789 21.8182 25.5789H19.9745C19.4715 26.4285 18.5313 27 17.4545 27C15.8479 27 14.5455 25.7275 14.5455 24.1579C14.5455 22.5882 15.8479 21.3158 17.4545 21.3158C18.5313 21.3158 19.4715 21.8873 19.9745 22.7368H21.8182C23.4248 22.7368 24.7273 21.4644 24.7273 19.8947V9.94737C24.7273 6.02324 21.4712 2.84211 17.4545 2.84211H14.5455ZM4.36364 12.7895H2.90909L2.90909 18.4737H4.36364V12.7895ZM27.6364 12.7895H29.0909V18.4737H27.6364V12.7895Z" fill="#9909E3"/>
<path d="M14.5455 13.1447C14.5455 14.1258 13.7314 14.9211 12.7273 14.9211C11.7231 14.9211 10.9091 14.1258 10.9091 13.1447C10.9091 12.1637 11.7231 11.3684 12.7273 11.3684C13.7314 11.3684 14.5455 12.1637 14.5455 13.1447Z" fill="#9909E3"/>
<path d="M19.2727 14.9211C20.2769 14.9211 21.0909 14.1258 21.0909 13.1447C21.0909 12.1637 20.2769 11.3684 19.2727 11.3684C18.2686 11.3684 17.4545 12.1637 17.4545 13.1447C17.4545 14.1258 18.2686 14.9211 19.2727 14.9211Z" fill="#9909E3"/>
</svg>
