<svg width="30" height="30" viewBox="0 0 30 30" fill="none" xmlns="http://www.w3.org/2000/svg">
<path fill-rule="evenodd" clip-rule="evenodd" d="M0 1.45833C0 0.652918 0.652918 0 1.45833 0H11.6667C12.4721 0 13.125 0.652918 13.125 1.45833V11.6667C13.125 12.4721 12.4721 13.125 11.6667 13.125H1.45833C0.652918 13.125 0 12.4721 0 11.6667V1.45833ZM2.91667 2.91667V10.2083H10.2083V2.91667H2.91667Z" fill="#9909E3"/>
<path fill-rule="evenodd" clip-rule="evenodd" d="M16.0417 1.45833C16.0417 0.652918 16.6946 0 17.5 0H27.7083C28.5138 0 29.1667 0.652918 29.1667 1.45833V11.6667C29.1667 12.4721 28.5138 13.125 27.7083 13.125H17.5C16.6946 13.125 16.0417 12.4721 16.0417 11.6667V1.45833ZM18.9583 2.91667V10.2083H26.25V2.91667H18.9583Z" fill="#9909E3"/>
<path fill-rule="evenodd" clip-rule="evenodd" d="M16.0417 17.5C16.0417 16.6946 16.6946 16.0417 17.5 16.0417H27.7083C28.5138 16.0417 29.1667 16.6946 29.1667 17.5V27.7083C29.1667 28.5138 28.5138 29.1667 27.7083 29.1667H17.5C16.6946 29.1667 16.0417 28.5138 16.0417 27.7083V17.5ZM18.9583 18.9583V26.25H26.25V18.9583H18.9583Z" fill="#9909E3"/>
<path fill-rule="evenodd" clip-rule="evenodd" d="M0 17.5C0 16.6946 0.652918 16.0417 1.45833 16.0417H11.6667C12.4721 16.0417 13.125 16.6946 13.125 17.5V27.7083C13.125 28.5138 12.4721 29.1667 11.6667 29.1667H1.45833C0.652918 29.1667 0 28.5138 0 27.7083V17.5ZM2.91667 18.9583V26.25H10.2083V18.9583H2.91667Z" fill="#9909E3"/>
</svg>
